<?xml version="1.0" encoding="utf-8"?>
<!-- Generator: Adobe Illustrator 27.5.0, SVG Export Plug-In . SVG Version: 6.00 Build 0)  -->
<svg version="1.1" xmlns="http://www.w3.org/2000/svg" xmlns:xlink="http://www.w3.org/1999/xlink" x="0px" y="0px"
	 viewBox="0 0 500 500" style="enable-background:new 0 0 500 500;" xml:space="preserve">
<g id="BACKGROUND">
	<rect style="fill:#E8E9EA;" width="500" height="500"/>
</g>
<g id="OBJECTS">
	<g>
		<g>
			<path style="fill:#1D262D;" d="M88.755,137.449l-16.868,16.868c-1.771,1.771-4.672-0.254-3.619-2.527l6.939-14.984
				c0.277-0.597,0.277-1.286,0-1.884l-6.939-14.984c-1.052-2.273,1.848-4.298,3.619-2.527l16.868,16.868
				C89.631,135.154,89.631,136.573,88.755,137.449z"/>
		</g>
		<g>
			<path style="fill:#1D262D;" d="M64.798,137.449l-16.868,16.868c-1.771,1.771-4.672-0.254-3.619-2.527l6.939-14.984
				c0.277-0.597,0.277-1.286,0-1.884l-6.939-14.984c-1.053-2.273,1.848-4.298,3.619-2.527l16.868,16.868
				C65.674,135.154,65.674,136.573,64.798,137.449z"/>
		</g>
	</g>
	<g>
		<g>
			<path style="fill:#CE6638;" d="M134.375,156.092c-0.913,0-1.824-0.348-2.52-1.044c-1.392-1.392-1.392-3.649,0-5.041
				l14.413-14.412l-14.115-14.115c-1.392-1.392-1.392-3.649,0-5.041c1.392-1.392,3.649-1.392,5.041,0l16.636,16.636
				c0.669,0.669,1.044,1.575,1.044,2.52s-0.375,1.852-1.044,2.521l-16.933,16.933C136.2,155.744,135.288,156.092,134.375,156.092z"
				/>
		</g>
		<g>
			<path style="fill:#CE6638;" d="M159.923,156.092c-0.913,0-1.824-0.348-2.521-1.044c-1.392-1.392-1.392-3.649,0-5.041
				l14.413-14.412L157.7,121.479c-1.392-1.392-1.392-3.649,0-5.041c1.392-1.392,3.648-1.393,5.041,0l16.636,16.636
				c0.668,0.669,1.044,1.575,1.044,2.52s-0.376,1.852-1.044,2.521l-16.933,16.933C161.748,155.744,160.835,156.092,159.923,156.092z
				"/>
		</g>
	</g>
	<g>
		
			<text transform="matrix(1 0 0 1 148.0295 60.8013)" style="fill:#1D262D; font-family:'Quicksand-Bold'; font-size:15px; letter-spacing:3;">ARROW COLLECTION</text>
		<g>
			<g>
				<path style="fill:#1D262D;" d="M125.013,60.771c-0.221,0-0.442-0.084-0.611-0.253c-0.338-0.338-0.338-0.885,0-1.222l3.495-3.495
					l-3.423-3.423c-0.338-0.338-0.338-0.885,0-1.223c0.338-0.337,0.885-0.337,1.223,0l4.034,4.034
					c0.162,0.162,0.253,0.382,0.253,0.611c0,0.229-0.091,0.449-0.253,0.611l-4.107,4.106
					C125.456,60.687,125.234,60.771,125.013,60.771z"/>
			</g>
			<g>
				<path style="fill:#1D262D;" d="M131.209,60.771c-0.221,0-0.442-0.084-0.611-0.253c-0.338-0.338-0.338-0.885,0-1.222l3.495-3.495
					l-3.423-3.423c-0.338-0.338-0.338-0.885,0-1.223c0.337-0.337,0.885-0.338,1.223,0l4.035,4.034
					c0.162,0.162,0.253,0.382,0.253,0.611c0,0.229-0.091,0.449-0.253,0.611l-4.107,4.106
					C131.651,60.687,131.43,60.771,131.209,60.771z"/>
			</g>
		</g>
		<g>
			<g>
				<path style="fill:#1D262D;" d="M374.987,50.901c0.221,0,0.442,0.084,0.611,0.253c0.338,0.338,0.338,0.885,0,1.222l-3.495,3.495
					l3.423,3.423c0.338,0.338,0.338,0.885,0,1.222c-0.337,0.338-0.885,0.338-1.223,0l-4.034-4.034
					c-0.162-0.162-0.253-0.382-0.253-0.611c0-0.229,0.091-0.449,0.253-0.611l4.106-4.106
					C374.544,50.986,374.765,50.901,374.987,50.901z"/>
			</g>
			<g>
				<path style="fill:#1D262D;" d="M368.791,50.901c0.221,0,0.442,0.084,0.611,0.253c0.338,0.338,0.338,0.885,0,1.222l-3.495,3.495
					l3.423,3.423c0.338,0.338,0.338,0.885,0,1.222c-0.337,0.338-0.885,0.338-1.223,0l-4.035-4.034
					c-0.162-0.162-0.253-0.382-0.253-0.611c0-0.229,0.091-0.449,0.253-0.611l4.107-4.106
					C368.348,50.986,368.57,50.901,368.791,50.901z"/>
			</g>
		</g>
	</g>
	<g>
		<path style="fill:#1D262D;" d="M410.974,117.453c-0.832-0.831-2.18-0.831-3.012,0c-0.831,0.832-0.832,2.18,0,3.012l6.022,6.023
			c0.416,0.415,0.961,0.623,1.506,0.623c0.545,0,1.09-0.208,1.506-0.623c0.831-0.831,0.832-2.18,0-3.012L410.974,117.453z"/>
		<path style="fill:#1D262D;" d="M421.586,128.065c-0.832-0.831-2.18-0.831-3.012,0c-0.832,0.832-0.832,2.18,0,3.012l4.518,4.518
			l-4.518,4.517c-0.831,0.832-0.832,2.18,0,3.012c0.416,0.416,0.961,0.624,1.506,0.624c0.545,0,1.09-0.208,1.506-0.624l6.023-6.023
			c0.399-0.399,0.624-0.941,0.624-1.506c0-0.565-0.225-1.106-0.624-1.506L421.586,128.065z"/>
		<path style="fill:#1D262D;" d="M413.688,144.999l-6.023,6.023c-0.831,0.831-0.832,2.18,0,3.012
			c0.416,0.415,0.961,0.623,1.506,0.623s1.09-0.208,1.506-0.623l6.023-6.023c0.831-0.832,0.832-2.18,0-3.012
			C415.867,144.167,414.52,144.167,413.688,144.999z"/>
		<path style="fill:#1D262D;" d="M436.521,117.453c-0.832-0.831-2.18-0.831-3.012,0c-0.831,0.832-0.832,2.18,0,3.012l6.022,6.023
			c0.416,0.415,0.961,0.623,1.506,0.623c0.545,0,1.09-0.208,1.506-0.623c0.831-0.831,0.832-2.18,0-3.012L436.521,117.453z"/>
		<path style="fill:#1D262D;" d="M453.156,134.089l-6.022-6.023c-0.832-0.831-2.18-0.832-3.012,0c-0.831,0.832-0.832,2.18,0,3.012
			l4.517,4.518l-4.517,4.517c-0.832,0.832-0.831,2.18,0,3.012c0.416,0.416,0.961,0.624,1.506,0.624c0.545,0,1.09-0.208,1.506-0.624
			l6.022-6.023C453.987,136.269,453.987,134.921,453.156,134.089z"/>
		<path style="fill:#1D262D;" d="M439.235,144.999l-6.023,6.023c-0.831,0.831-0.832,2.18,0,3.012
			c0.416,0.415,0.961,0.623,1.506,0.623c0.545,0,1.09-0.208,1.506-0.623l6.023-6.023c0.831-0.832,0.832-2.18,0-3.012
			C441.415,144.167,440.067,144.167,439.235,144.999z"/>
	</g>
	<g>
		<path style="fill:#CE6638;" d="M321.331,126.245l3.066-3.066c-1.527-1.204-3.085-2.376-4.699-3.492
			c-1.616-1.114-3.268-2.193-5.025-3.166c0.973,1.758,2.052,3.409,3.166,5.025C318.956,123.16,320.128,124.718,321.331,126.245z"/>
		<path style="fill:#CE6638;" d="M333.809,131.394l-2.113-1.983c-1.426-1.304-2.875-2.586-4.355-3.837l-3.615,3.615
			c1.25,1.48,2.532,2.929,3.837,4.355l1.899,2.024c-0.651,0.661-1.274,1.348-1.913,2.021c-0.668,0.697-1.299,1.431-1.95,2.146
			c-0.652,0.713-1.269,1.461-1.906,2.19l3.68,3.681c0.729-0.636,1.477-1.254,2.19-1.906c0.715-0.651,1.448-1.282,2.146-1.95
			c0.7-0.665,1.419-1.312,2.104-1.992l2.065-2.031l2.194-2.158l-2.194-2.148L333.809,131.394z"/>
		<path style="fill:#CE6638;" d="M317.494,149.936c-1.113,1.617-2.191,3.27-3.162,5.03c1.76-0.97,3.413-2.048,5.03-3.162
			c1.615-1.116,3.175-2.286,4.701-3.491l-3.078-3.078C319.781,146.761,318.61,148.321,317.494,149.936z"/>
		<path style="fill:#CE6638;" d="M350.59,126.245l3.066-3.066c-1.527-1.204-3.085-2.376-4.699-3.492
			c-1.616-1.114-3.267-2.193-5.025-3.166c0.973,1.758,2.052,3.409,3.166,5.025C348.215,123.16,349.387,124.718,350.59,126.245z"/>
		<path style="fill:#CE6638;" d="M365.137,133.42l-2.07-2.026l-2.113-1.983c-1.426-1.304-2.875-2.586-4.355-3.837l-3.615,3.615
			c1.25,1.48,2.532,2.929,3.837,4.355l1.899,2.024c-0.651,0.661-1.275,1.348-1.913,2.021c-0.668,0.697-1.299,1.431-1.95,2.146
			c-0.652,0.713-1.269,1.461-1.906,2.19l3.681,3.681c0.729-0.636,1.477-1.254,2.19-1.906c0.715-0.651,1.448-1.282,2.146-1.95
			c0.7-0.665,1.419-1.312,2.104-1.992l2.065-2.031l2.194-2.158L365.137,133.42z"/>
		<path style="fill:#CE6638;" d="M346.753,149.936c-1.113,1.617-2.191,3.27-3.161,5.03c1.76-0.97,3.412-2.048,5.03-3.162
			c1.615-1.116,3.175-2.286,4.701-3.491l-3.078-3.078C349.039,146.761,347.869,148.321,346.753,149.936z"/>
	</g>
	<g>
		<path style="fill:#1D262D;" d="M229.392,125.438l-4.894-4.801l-4.975-4.72l-0.27-0.256l-0.352,0.352l0.095,0.431
			c0.146,0.662,0.362,1.254,0.541,1.883l0.652,1.771c0.434,1.182,0.951,2.28,1.471,3.377c1.059,2.173,2.256,4.207,3.529,6.165
			c1.28,1.951,2.663,3.8,4.119,5.576c0.089,0.113,0.187,0.218,0.278,0.329c-0.127,0.149-0.258,0.295-0.383,0.446
			c-1.477,1.812-2.91,3.668-4.209,5.659c-1.305,1.984-2.53,4.048-3.614,6.254c-0.531,1.114-1.06,2.229-1.507,3.427l-0.669,1.798
			c-0.184,0.639-0.405,1.24-0.555,1.912l-0.096,0.43l0.353,0.353l0.27-0.256l5.063-4.805l4.98-4.888l9.954-9.781l0.535-0.526
			l-0.535-0.525L229.392,125.438z"/>
		<path style="fill:#1D262D;" d="M268.951,135.044l-9.783-9.607l-4.894-4.801l-4.975-4.72l-0.27-0.256l-0.351,0.352l0.095,0.431
			c0.146,0.662,0.362,1.254,0.541,1.883l0.652,1.771c0.434,1.182,0.951,2.28,1.471,3.377c1.059,2.173,2.256,4.207,3.529,6.165
			c1.28,1.951,2.663,3.8,4.119,5.576c0.089,0.113,0.187,0.218,0.278,0.329c-0.127,0.149-0.258,0.295-0.382,0.446
			c-1.477,1.812-2.91,3.668-4.209,5.659c-1.305,1.984-2.53,4.048-3.614,6.254c-0.531,1.114-1.061,2.229-1.507,3.427l-0.669,1.798
			c-0.184,0.639-0.405,1.24-0.555,1.912l-0.096,0.43l0.353,0.353l0.27-0.256l5.063-4.805l4.98-4.888l9.955-9.781l0.535-0.526
			L268.951,135.044z"/>
	</g>
	<g>
		<polygon style="fill:#CE6638;" points="59.749,209.299 44.088,209.299 64.916,227.671 44.088,246.042 59.749,246.042 
			80.578,227.671 		"/>
		<polygon style="fill:#CE6638;" points="100.817,246.042 71.906,246.042 90.277,227.671 71.906,209.299 100.817,209.299 
			121.645,227.671 		"/>
	</g>
	<g>
		<g>
			<path style="fill:#1D262D;" d="M344.509,209.299L344.509,209.299c-4.773,0-7.006,5.908-3.426,9.065l6.147,5.422
				c2.338,2.062,2.338,5.707,0,7.77l-6.147,5.422c-3.579,3.157-1.346,9.065,3.426,9.065l0,0c1.262,0,2.48-0.46,3.426-1.295
				l14.956-13.191c2.338-2.062,2.338-5.707,0-7.77l-14.956-13.191C346.989,209.76,345.771,209.299,344.509,209.299z"/>
		</g>
		<g>
			<path style="fill:#1D262D;" d="M369.835,209.299L369.835,209.299c-4.773,0-7.006,5.908-3.427,9.065l6.147,5.422
				c2.338,2.062,2.338,5.707,0,7.77l-6.147,5.422c-3.579,3.157-1.346,9.065,3.427,9.065l0,0c1.262,0,2.48-0.46,3.426-1.295
				l14.956-13.191c2.338-2.062,2.338-5.707,0-7.77l-14.956-13.191C372.315,209.76,371.097,209.299,369.835,209.299z"/>
		</g>
	</g>
	<g>
		<g>
			<polygon style="fill:#CE6638;" points="257.583,227.617 249.012,219.592 249.012,235.749 			"/>
			<polygon style="fill:#CE6638;" points="257.824,209.299 250.015,209.299 268.327,227.612 248.902,246.042 257.824,246.042 
				278.652,227.671 			"/>
			<polygon style="fill:#CE6638;" points="274.781,209.299 266.972,209.299 285.284,227.612 265.86,246.042 274.781,246.042 
				295.61,227.671 			"/>
		</g>
	</g>
	<g>
		<polygon style="fill:#1D262D;" points="168.325,246.042 186.748,227.619 168.428,209.299 153.285,209.299 171.656,227.671 
			153.285,246.042 		"/>
		<polygon style="fill:#1D262D;" points="182.196,209.299 173.228,209.299 191.548,227.619 173.125,246.042 182.196,246.042 
			203.024,227.671 		"/>
	</g>
	<g>
		<g>
			<g>
				<path style="fill:#CE6638;" d="M431.515,209.299L431.515,209.299c-4.773,0-7.006,5.908-3.426,9.065l6.147,5.422
					c2.338,2.062,2.338,5.707,0,7.77l-6.147,5.422c-3.579,3.157-1.346,9.065,3.426,9.065l0,0c1.262,0,2.48-0.46,3.426-1.295
					l14.956-13.191c2.338-2.062,2.338-5.707,0-7.77l-14.956-13.191C433.996,209.76,432.777,209.299,431.515,209.299z"/>
			</g>
		</g>
		<circle style="fill:#CE6638;" cx="427.034" cy="227.594" r="3.4"/>
	</g>
	<g>
		<path style="fill:#1D262D;" d="M91.992,304.73L91.992,304.73c-1.164,1.164-1.165,3.051,0,4.216l1.827,1.827
			c1.877,1.878,0.547,5.088-2.108,5.088H77.355c-1.646,0-2.981,1.335-2.981,2.981v0.003c0,1.646,1.335,2.981,2.981,2.981h14.354
			c2.656,0,3.986,3.211,2.108,5.089l-1.825,1.825c-1.164,1.164-1.164,3.051,0,4.215l0.001,0.001c1.164,1.164,3.051,1.164,4.216,0
			l12.006-12.005c1.164-1.164,1.164-3.052,0-4.216L96.207,304.73C95.043,303.566,93.156,303.566,91.992,304.73z"/>
		<path style="fill:#1D262D;" d="M62.871,321.826h3.436c1.647,0,2.982-1.335,2.982-2.982l0,0c0-1.647-1.335-2.982-2.982-2.982
			h-3.436c-1.647,0-2.982,1.335-2.982,2.982l0,0C59.889,320.491,61.224,321.826,62.871,321.826z"/>
		<path style="fill:#1D262D;" d="M51.665,321.826h0.431c1.249,0,2.261-1.012,2.261-2.261v-1.442c0-1.249-1.012-2.261-2.261-2.261
			h-0.431c-1.249,0-2.261,1.012-2.261,2.261v1.442C49.403,320.814,50.416,321.826,51.665,321.826z"/>
	</g>
	<g>
		<polygon style="fill:#CE6638;" points="174.376,302.623 174.376,315.861 156.403,315.861 156.403,321.826 174.376,321.826 
			174.376,335.064 192.35,318.844 		"/>
		<rect x="141.917" y="315.861" style="fill:#CE6638;" width="9.4" height="5.965"/>
		<rect x="131.432" y="315.861" style="fill:#CE6638;" width="4.953" height="5.965"/>
	</g>
	<g>
		<path style="fill:#1D262D;" d="M265.935,308.488v7.374h-17.974v5.965h17.974v7.374c0,2.259,2.677,3.449,4.354,1.935l11.475-10.356
			c1.147-1.035,1.147-2.836,0-3.871l-11.475-10.356C268.612,305.039,265.935,306.229,265.935,308.488z"/>
		<path style="fill:#1D262D;" d="M233.476,321.826h6.418c1.647,0,2.982-1.335,2.982-2.982l0,0c0-1.647-1.335-2.982-2.982-2.982
			h-6.418V321.826z"/>
		<path style="fill:#1D262D;" d="M222.99,321.826h1.971c1.647,0,2.982-1.335,2.982-2.982l0,0c0-1.647-1.335-2.982-2.982-2.982
			h-1.971V321.826z"/>
	</g>
	<g>
		<path style="fill:#CE6638;" d="M354.823,304.59v11.272h-17.974v5.965h17.974v11.272c0,0.758,0.898,1.157,1.46,0.649l0,0
			c8.833-7.972,8.833-21.834,0-29.806l0,0C355.72,303.433,354.823,303.832,354.823,304.59z"/>
		<path style="fill:#CE6638;" d="M327.625,321.826h1.157c1.647,0,2.982-1.335,2.982-2.982l0,0c0-1.647-1.335-2.982-2.982-2.982
			h-1.157V321.826z"/>
		<path style="fill:#CE6638;" d="M320.813,321.826h1.157c1.647,0,2.982-1.335,2.982-2.982l0,0c0-1.647-1.335-2.982-2.982-2.982
			h-1.157V321.826z"/>
		<path style="fill:#CE6638;" d="M313.563,321.826h1.157c1.647,0,2.982-1.335,2.982-2.982l0,0c0-1.647-1.335-2.982-2.982-2.982
			h-1.157V321.826z"/>
	</g>
	<g>
		<circle style="fill:#1D262D;" cx="410.534" cy="318.811" r="2.95"/>
		<circle style="fill:#1D262D;" cx="401.368" cy="318.811" r="2.95"/>
		<circle style="fill:#1D262D;" cx="392.035" cy="318.811" r="2.95"/>
		<g>
			<g>
				<path style="fill:#1D262D;" d="M418.243,304.905L418.243,304.905c-3.613,0-5.303,4.472-2.594,6.862l4.653,4.104
					c1.77,1.561,1.77,4.32,0,5.881l-4.653,4.104c-2.71,2.39-1.019,6.862,2.594,6.862l0,0c0.955,0,1.877-0.349,2.594-0.98
					l11.321-9.985c1.77-1.561,1.77-4.32,0-5.881l-11.321-9.985C420.12,305.254,419.198,304.905,418.243,304.905z"/>
			</g>
		</g>
		<g>
			<g>
				<path style="fill:#1D262D;" d="M436.409,304.905L436.409,304.905c-3.613,0-5.303,4.472-2.594,6.862l4.653,4.104
					c1.77,1.561,1.77,4.32,0,5.881l-4.653,4.104c-2.71,2.39-1.019,6.862,2.594,6.862l0,0c0.955,0,1.877-0.349,2.594-0.98
					l11.321-9.985c1.77-1.561,1.77-4.32,0-5.881l-11.321-9.985C438.287,305.254,437.364,304.905,436.409,304.905z"/>
			</g>
		</g>
	</g>
	<g>
		<g>
			<g>
				<path style="fill:#CE6638;" d="M82.204,382.868v2.676c0,0.718,0.338,1.394,0.913,1.824l11.506,8.607
					c0.468,0.35,0.468,1.052,0,1.402l-11.506,8.606c-0.575,0.431-0.914,1.107-0.914,1.825v2.676c0,0.74,0.845,1.163,1.438,0.72
					l18.272-13.668c0.575-0.429,0.575-1.291,0-1.721l-18.272-13.667C83.049,381.703,82.204,382.128,82.204,382.868z"/>
				<path style="fill:#CE6638;" d="M83.64,392.72l4.138,3.096c0.574,0.429,0.574,1.291,0,1.721l-4.137,3.095
					c-0.593,0.443-1.438,0.02-1.438-0.721l-0.002-6.468C82.202,392.699,83.047,392.276,83.64,392.72z"/>
			</g>
		</g>
		<path style="fill:#CE6638;" d="M45.064,400.811h28.697c1.14,0,2.064-0.924,2.064-2.064v-4.144c0-1.14-0.924-2.064-2.064-2.064
			H45.064c-1.14,0-2.064,0.924-2.064,2.064v4.144C43,399.887,43.924,400.811,45.064,400.811z"/>
	</g>
	<g>
		<g>
			<g>
				<path style="fill:#1D262D;" d="M353.577,392.72l4.138,3.096c0.574,0.429,0.574,1.291,0,1.721l-4.137,3.095
					c-0.593,0.443-1.438,0.02-1.438-0.721l-0.002-6.468C352.138,392.699,352.983,392.276,353.577,392.72z"/>
			</g>
		</g>
		<g>
			<g>
				<path style="fill:#1D262D;" d="M362.793,392.72l4.138,3.096c0.574,0.429,0.574,1.291,0,1.721l-4.137,3.095
					c-0.593,0.443-1.438,0.02-1.438-0.721l-0.002-6.468C361.354,392.699,362.2,392.276,362.793,392.72z"/>
			</g>
		</g>
		<g>
			<g>
				<path style="fill:#1D262D;" d="M371.574,392.72l4.138,3.096c0.574,0.429,0.574,1.291,0,1.721l-4.137,3.095
					c-0.593,0.443-1.438,0.02-1.438-0.721l-0.002-6.468C370.136,392.699,370.981,392.276,371.574,392.72z"/>
			</g>
		</g>
		<path style="fill:#1D262D;" d="M317.072,400.811h24.553c2.284,0,4.136-1.852,4.136-4.136l0,0c0-2.284-1.852-4.136-4.136-4.136
			h-24.553c-2.284,0-4.136,1.852-4.136,4.136l0,0C312.936,398.959,314.788,400.811,317.072,400.811z"/>
	</g>
	<g>
		<g>
			<g>
				<path style="fill:#CE6638;" d="M411.874,392.72l4.138,3.096c0.574,0.429,0.574,1.291,0,1.721l-4.137,3.095
					c-0.593,0.443-1.438,0.02-1.438-0.721l-0.002-6.468C410.435,392.699,411.281,392.276,411.874,392.72z"/>
			</g>
		</g>
		<g>
			<g>
				<path style="fill:#CE6638;" d="M421.09,392.72l4.138,3.096c0.574,0.429,0.574,1.291,0,1.721l-4.138,3.095
					c-0.593,0.443-1.438,0.02-1.438-0.721l-0.002-6.468C419.652,392.699,420.497,392.276,421.09,392.72z"/>
			</g>
		</g>
		<g>
			<g>
				<path style="fill:#CE6638;" d="M433.015,386.6l10.54,7.886c1.461,1.094,1.461,3.289,0,4.382l-10.538,7.882
					c-1.511,1.129-3.662,0.052-3.662-1.837l-0.004-16.475C429.35,386.548,431.503,385.471,433.015,386.6z"/>
			</g>
		</g>
	</g>
	<g>
		<g>
			<g>
				<path style="fill:#1D262D;" d="M171.019,382.868v2.676c0,0.718,0.338,1.394,0.913,1.824l11.506,8.607
					c0.468,0.35,0.468,1.052,0,1.402l-11.506,8.606c-0.575,0.431-0.914,1.107-0.914,1.825v2.676c0,0.74,0.845,1.163,1.438,0.72
					l18.273-13.668c0.575-0.429,0.575-1.291,0-1.721l-18.272-13.667C171.864,381.703,171.019,382.128,171.019,382.868z"/>
				<path style="fill:#1D262D;" d="M174.935,394.574L174.935,394.574c1.403,1.05,1.403,3.153,0,4.203l-0.001,0.001
					c-1.615,1.208-3.915,0.056-3.916-1.961l0-0.28C171.017,394.519,173.319,393.366,174.935,394.574z"/>
			</g>
		</g>
		<path style="fill:#1D262D;" d="M135.872,399.27h29.979c1.572,0,2.846-1.274,2.846-2.846l0,0c0-1.572-1.274-2.846-2.846-2.846
			h-29.979V399.27z"/>
	</g>
	<g>
		<g>
			<g>
				<path style="fill:#CE6638;" d="M260.27,382.719l0.05,2.676c0.013,0.718,0.364,1.388,0.947,1.806l11.664,8.392
					c0.474,0.341,0.487,1.043,0.026,1.402l-11.344,8.818c-0.567,0.442-0.893,1.124-0.88,1.842l0.05,2.676
					c0.014,0.74,0.867,1.147,1.451,0.693l18.016-14.004c0.566-0.44,0.551-1.302-0.032-1.72l-18.522-13.326
					C261.092,381.539,260.256,381.979,260.27,382.719z"/>
			</g>
		</g>
		<path style="fill:#CE6638;" d="M224.187,401.336l30.319-0.563c1.381-0.026,2.48-1.166,2.454-2.547l-0.061-3.27
			c-0.026-1.381-1.166-2.48-2.547-2.454l-30.319,0.563L224.187,401.336z"/>
		<path style="fill:#CE6638;" d="M261.064,400.651L261.064,400.651c1.917-0.036,3.443-1.619,3.407-3.536l-0.025-1.328
			c-0.036-1.917-1.619-3.443-3.536-3.407l0,0c-1.001,0.019-1.797,0.845-1.779,1.846l0.086,4.646
			C259.237,399.873,260.063,400.669,261.064,400.651z"/>
	</g>
</g>
<g id="DESIGNED_BY_FREEPIK">
	<g>
		<g id="XMLID_319_">
			<g id="XMLID_338_">
				<path id="XMLID_346_" style="fill:#1D262D;" d="M260.104,465.465c-0.432,0.443-0.803,0.931-1.108,1.453l-0.465-0.241
					c-0.067-0.298-0.349-0.503-0.659-0.466c-0.331,0.039-0.568,0.339-0.529,0.67c0.039,0.331,0.339,0.568,0.67,0.529
					c0.065-0.008,0.127-0.026,0.183-0.052l0.452,0.234c-0.251,0.554-0.433,1.139-0.539,1.744l0.747,0.132
					c0.23-1.306,0.85-2.507,1.792-3.473L260.104,465.465z"/>
				<path id="XMLID_345_" style="fill:#1D262D;" d="M265.592,463.163c-0.171,0-0.341,0.006-0.51,0.017l-0.074-0.626
					c0.188-0.149,0.296-0.389,0.266-0.645c-0.046-0.393-0.402-0.674-0.795-0.628c-0.393,0.046-0.674,0.402-0.628,0.795
					c0.03,0.254,0.189,0.461,0.405,0.564l0.073,0.624c-0.714,0.116-1.403,0.332-2.06,0.646l0.327,0.684
					c0.934-0.447,1.942-0.673,2.995-0.673c0.496,0,0.993,0.053,1.475,0.158l0.161-0.741
					C266.692,463.222,266.142,463.163,265.592,463.163z"/>
				<path id="XMLID_344_" style="fill:#1D262D;" d="M272.194,465.711c0.331-0.04,0.566-0.341,0.526-0.672
					c-0.04-0.331-0.341-0.566-0.672-0.526c-0.309,0.038-0.535,0.304-0.53,0.609l-0.416,0.363c-0.418-0.43-0.89-0.813-1.408-1.139
					l-0.404,0.641c1.134,0.715,2.021,1.726,2.563,2.925l0.691-0.313c-0.251-0.554-0.568-1.072-0.942-1.545l0.402-0.351
					C272.065,465.716,272.129,465.719,272.194,465.711z"/>
				<path id="XMLID_343_" style="fill:#1D262D;" d="M265.044,473.372c-0.386,0.023-0.775,0.035-1.157,0.035
					c-0.88,0-1.733-0.061-2.478-0.179c-0.39-0.062-0.846-0.155-1.27-0.292c1.046,1.861,3.069,3.125,5.388,3.125
					c2.855,0,5.262-1.916,5.95-4.504c-0.682,0.449-1.505,0.825-2.459,1.123C267.839,473.047,266.464,473.286,265.044,473.372z"/>
				<path id="XMLID_339_" style="fill:#1D262D;" d="M265.592,464.68c-3.352,0-6.08,2.666-6.08,5.943
					c0,0.426,0.046,0.849,0.137,1.261c0.673,0.483,2.706,0.89,5.348,0.731c2.879-0.173,5.297-0.957,6.672-2.159
					c-0.005-0.195-0.021-0.39-0.045-0.582C271.244,466.913,268.65,464.68,265.592,464.68z M263.432,471.194
					c-1.02,0-1.85-0.83-1.85-1.85c0-1.02,0.83-1.85,1.85-1.85c1.02,0,1.85,0.83,1.85,1.85
					C265.282,470.365,264.452,471.194,263.432,471.194z M268.17,470.286c-0.75,0-1.36-0.61-1.36-1.36s0.61-1.361,1.36-1.361
					c0.75,0,1.361,0.61,1.361,1.361S268.92,470.286,268.17,470.286z"/>
			</g>
			<path id="XMLID_336_" style="fill:#1D262D;" d="M281.595,466.547c-0.295-0.116-0.805-0.309-1.382-0.237
				c-0.551,0.069-0.844,0.341-0.844,1.007v0.866h2.228v1.717h-2.228v5.455h-1.932v-5.455h-1.34v-1.717h1.34v-0.888
				c0-1.68,0.896-2.783,2.568-2.783c0.643,0,1.157,0.122,1.59,0.308L281.595,466.547z"/>
			<path id="XMLID_334_" style="fill:#1D262D;" d="M286.298,469.879c-0.177-0.03-0.358-0.046-0.526-0.046
				c-0.896,0-1.51,0.548-1.51,1.614v3.908h-1.932v-7.172h1.873v0.785c0.451-0.673,1.14-0.977,2.021-0.977
				c0.414,0,0.848,0.128,1.094,0.337L286.298,469.879z"/>
			<path id="XMLID_331_" style="fill:#1D262D;" d="M293.965,471.757c0,0.222-0.015,0.489-0.037,0.651h-5.085
				c0.207,1.036,0.933,1.488,1.843,1.488c0.622,0,1.295-0.252,1.813-0.688l1.132,1.243c-0.814,0.748-1.85,1.088-3.057,1.088
				c-2.198,0-3.723-1.495-3.723-3.753c0-2.258,1.48-3.797,3.627-3.797C292.544,467.99,293.958,469.522,293.965,471.757z
				 M288.851,471.091h3.175c-0.177-0.918-0.733-1.436-1.562-1.436C289.554,469.655,289.021,470.203,288.851,471.091z"/>
			<path id="XMLID_328_" style="fill:#1D262D;" d="M301.618,471.757c0,0.222-0.015,0.489-0.037,0.651h-5.085
				c0.207,1.036,0.933,1.488,1.843,1.488c0.622,0,1.295-0.252,1.813-0.688l1.132,1.243c-0.814,0.748-1.85,1.088-3.057,1.088
				c-2.198,0-3.723-1.495-3.723-3.753c0-2.258,1.48-3.797,3.627-3.797C300.197,467.99,301.611,469.522,301.618,471.757z
				 M296.504,471.091h3.175c-0.178-0.918-0.733-1.436-1.562-1.436C297.207,469.655,296.674,470.203,296.504,471.091z"/>
			<path id="XMLID_325_" style="fill:#1D262D;" d="M309.964,471.764c0,2.154-1.495,3.775-3.471,3.775
				c-0.962,0-1.643-0.378-2.109-0.933v3.708h-1.924v-10.133h1.887v0.792c0.466-0.585,1.155-0.984,2.139-0.984
				C308.469,467.99,309.964,469.61,309.964,471.764z M304.287,471.764c0,1.132,0.747,1.976,1.843,1.976
				c1.14,0,1.85-0.881,1.85-1.976c0-1.095-0.71-1.976-1.85-1.976C305.035,469.788,304.287,470.632,304.287,471.764z"/>
			<path id="XMLID_322_" style="fill:#1D262D;" d="M313.068,465.836c0,0.696-0.54,1.229-1.236,1.229
				c-0.696,0-1.229-0.533-1.229-1.229c0-0.696,0.533-1.243,1.229-1.243C312.527,464.592,313.068,465.14,313.068,465.836z
				 M312.809,475.354h-1.932v-7.172h1.932V475.354z"/>
			<path id="XMLID_320_" style="fill:#1D262D;" d="M316.032,470.736l2.701-2.554h2.368l-3.479,3.375l3.501,3.797h-2.376
				l-2.716-2.901v2.901H314.1v-10.658h1.932V470.736z"/>
		</g>
		<g>
			<path style="fill:#1D262D;" d="M184.412,475.289v-1.055c-0.527,0.718-1.391,1.23-2.387,1.23c-1.846,0-3.149-1.406-3.149-3.706
				c0-2.256,1.289-3.721,3.149-3.721c0.952,0,1.816,0.469,2.387,1.245v-3.765h1.099v9.77H184.412z M184.412,473.37v-3.208
				c-0.395-0.615-1.245-1.143-2.124-1.143c-1.421,0-2.27,1.172-2.27,2.739c0,1.567,0.85,2.724,2.27,2.724
				C183.168,474.483,184.017,473.986,184.412,473.37z"/>
			<path style="fill:#1D262D;" d="M186.932,471.744c0-2.051,1.465-3.706,3.486-3.706c2.139,0,3.398,1.67,3.398,3.794v0.279h-5.727
				c0.088,1.333,1.025,2.446,2.549,2.446c0.805,0,1.626-0.322,2.182-0.894l0.527,0.718c-0.703,0.703-1.655,1.084-2.812,1.084
				C188.44,475.465,186.932,473.956,186.932,471.744z M190.403,468.947c-1.509,0-2.256,1.274-2.314,2.358h4.643
				C192.718,470.25,192.015,468.947,190.403,468.947z"/>
			<path style="fill:#1D262D;" d="M194.607,474.351l0.571-0.791c0.469,0.542,1.362,1.011,2.329,1.011c1.084,0,1.67-0.513,1.67-1.216
				c0-1.714-4.38-0.659-4.38-3.281c0-1.098,0.952-2.036,2.636-2.036c1.201,0,2.051,0.454,2.622,1.026l-0.513,0.762
				c-0.424-0.513-1.201-0.894-2.109-0.894c-0.967,0-1.567,0.483-1.567,1.113c0,1.552,4.38,0.527,4.38,3.281
				c0,1.187-0.952,2.138-2.783,2.138C196.306,475.465,195.325,475.113,194.607,474.351z"/>
			<path style="fill:#1D262D;" d="M201.477,466.471c0-0.41,0.337-0.747,0.732-0.747c0.41,0,0.747,0.337,0.747,0.747
				c0,0.41-0.337,0.732-0.747,0.732C201.814,467.203,201.477,466.881,201.477,466.471z M201.667,475.289v-7.075h1.099v7.075H201.667
				z"/>
			<path style="fill:#1D262D;" d="M204.582,477.105l0.556-0.82c0.586,0.703,1.289,0.967,2.3,0.967c1.172,0,2.27-0.571,2.27-2.124
				v-1.011c-0.513,0.718-1.377,1.26-2.373,1.26c-1.845,0-3.149-1.377-3.149-3.662c0-2.27,1.289-3.677,3.149-3.677
				c0.952,0,1.802,0.469,2.373,1.245v-1.069h1.098v6.87c0,2.344-1.641,3.076-3.369,3.076
				C206.237,478.16,205.417,477.926,204.582,477.105z M209.709,473.253v-3.091c-0.381-0.615-1.23-1.143-2.109-1.143
				c-1.421,0-2.27,1.128-2.27,2.695c0,1.553,0.849,2.695,2.27,2.695C208.478,474.41,209.328,473.868,209.709,473.253z"/>
			<path style="fill:#1D262D;" d="M217.413,475.289v-4.629c0-1.245-0.63-1.641-1.582-1.641c-0.865,0-1.685,0.527-2.095,1.099v5.17
				h-1.099v-7.075h1.099v1.025c0.498-0.586,1.465-1.201,2.519-1.201c1.48,0,2.256,0.747,2.256,2.285v4.966H217.413z"/>
			<path style="fill:#1D262D;" d="M219.932,471.744c0-2.051,1.465-3.706,3.486-3.706c2.139,0,3.398,1.67,3.398,3.794v0.279h-5.727
				c0.088,1.333,1.025,2.446,2.549,2.446c0.806,0,1.626-0.322,2.183-0.894l0.527,0.718c-0.703,0.703-1.655,1.084-2.812,1.084
				C221.441,475.465,219.932,473.956,219.932,471.744z M223.404,468.947c-1.509,0-2.256,1.274-2.314,2.358h4.643
				C225.718,470.25,225.015,468.947,223.404,468.947z"/>
			<path style="fill:#1D262D;" d="M233.35,475.289v-1.055c-0.527,0.718-1.392,1.23-2.388,1.23c-1.846,0-3.149-1.406-3.149-3.706
				c0-2.256,1.289-3.721,3.149-3.721c0.952,0,1.817,0.469,2.388,1.245v-3.765h1.098v9.77H233.35z M233.35,473.37v-3.208
				c-0.396-0.615-1.245-1.143-2.124-1.143c-1.421,0-2.27,1.172-2.27,2.739c0,1.567,0.849,2.724,2.27,2.724
				C232.105,474.483,232.954,473.986,233.35,473.37z"/>
			<path style="fill:#1D262D;" d="M239.692,475.289v-9.77h1.098v3.765c0.572-0.776,1.421-1.245,2.388-1.245
				c1.845,0,3.149,1.465,3.149,3.721c0,2.299-1.304,3.706-3.149,3.706c-0.996,0-1.86-0.513-2.388-1.23v1.055H239.692z
				 M242.9,474.483c1.436,0,2.285-1.157,2.285-2.724c0-1.568-0.85-2.739-2.285-2.739c-0.864,0-1.728,0.527-2.109,1.143v3.208
				C241.171,473.986,242.036,474.483,242.9,474.483z"/>
			<path style="fill:#1D262D;" d="M247.528,477.061c0.161,0.073,0.425,0.117,0.601,0.117c0.483,0,0.805-0.161,1.055-0.747
				l0.469-1.069l-2.959-7.148h1.187l2.358,5.8l2.344-5.8h1.201l-3.545,8.51c-0.425,1.025-1.143,1.421-2.08,1.435
				c-0.234,0-0.601-0.044-0.806-0.103L247.528,477.061z"/>
		</g>
	</g>
</g>
</svg>
