<svg width="20" height="20" viewBox="0 0 20 20" fill="none" xmlns="http://www.w3.org/2000/svg">
<path fill-rule="evenodd" clip-rule="evenodd" d="M18.955 3.16682C19.1473 3.45793 19.1152 3.85354 18.8589 4.10983L9.66655 13.3022C9.57233 13.3964 9.45469 13.4639 9.32577 13.4975L5.49734 14.4975C5.37247 14.5302 5.24376 14.5295 5.12283 14.4987C4.99427 14.466 4.87449 14.3992 4.77748 14.3022C4.5892 14.1139 4.51486 13.84 4.58215 13.5823L5.58215 9.75391C5.61162 9.6411 5.66691 9.52968 5.7434 9.44228L14.9699 0.220738C15.0506 0.139974 15.1479 0.0795283 15.2538 0.0426994C15.3323 0.0153924 15.4155 0.00106812 15.5002 0.00106812C15.6991 0.00106812 15.8899 0.0800856 16.0305 0.220738L18.8589 3.04917C18.8956 3.08578 18.9276 3.12523 18.955 3.16682ZM17.268 3.57949L15.5002 1.81173L6.98202 10.3299L6.35703 12.7227L8.7498 12.0977L17.268 3.57949Z" fill="#224BD4"/>
<path d="M17.1415 14.9114C17.4149 12.5738 17.5019 10.2198 17.4025 7.87186C17.3978 7.75944 17.44 7.65005 17.5196 7.57049L18.5029 6.58716C18.6238 6.46626 18.8304 6.54301 18.8417 6.71361C19.0266 9.50326 18.9565 12.3056 18.6314 15.0856C18.3948 17.1082 16.7705 18.6932 14.7584 18.918C11.2919 19.3055 7.70853 19.3055 4.24195 18.918C2.2299 18.6932 0.605562 17.1082 0.369009 15.0856C-0.045529 11.5413 -0.045529 7.9608 0.369009 4.4165C0.605562 2.39397 2.2299 0.808957 4.24195 0.58408C6.8717 0.290167 9.56864 0.219217 12.2308 0.371229C12.4024 0.381026 12.4806 0.588643 12.3591 0.710162L11.3666 1.70272C11.2879 1.78141 11.1799 1.82367 11.0687 1.81992C8.84229 1.74483 6.60074 1.82979 4.40856 2.0748C3.07846 2.22346 2.01297 3.27307 1.85885 4.59075C1.45786 8.01927 1.45786 11.4829 1.85885 14.9114C2.01297 16.2291 3.07845 17.2787 4.40856 17.4273C7.76441 17.8024 11.236 17.8024 14.5918 17.4273C15.9219 17.2787 16.9874 16.2291 17.1415 14.9114Z" fill="#224BD4"/>
</svg>
