<svg width="27" height="19" viewBox="0 0 27 19" fill="none" xmlns="http://www.w3.org/2000/svg">
<path d="M23.702 0.335052H3.29799C1.47956 0.335052 0 1.81461 0 3.63304V15.367C0 17.1854 1.47956 18.665 3.29799 18.665H23.702C25.5204 18.665 27 17.1854 27 15.367V3.6334C27.0004 1.81461 25.5208 0.335052 23.702 0.335052ZM22.0905 2.48662L13.5 8.02116L4.90951 2.48662H22.0905ZM23.702 16.5138H3.29799C2.66579 16.5138 2.15157 15.9992 2.15157 15.3673V3.69436L12.8362 10.565C12.8506 10.574 12.866 10.5801 12.8807 10.5883C12.8961 10.5969 12.9119 10.6052 12.9277 10.6131C13.0105 10.6558 13.0959 10.6902 13.183 10.7128C13.192 10.7153 13.2009 10.7164 13.2099 10.7185C13.3056 10.7411 13.4025 10.7551 13.4993 10.7551H13.5C13.5007 10.7551 13.5014 10.7551 13.5014 10.7551C13.5983 10.7551 13.6951 10.7415 13.7908 10.7185C13.7998 10.7164 13.8087 10.7153 13.8177 10.7128C13.9049 10.6902 13.9898 10.6558 14.073 10.6131C14.0888 10.6052 14.1046 10.5969 14.12 10.5883C14.1347 10.5801 14.1501 10.574 14.1645 10.565L24.8491 3.69436V15.367C24.8488 15.9992 24.3342 16.5138 23.702 16.5138Z" fill="#D9D9D9"/>
</svg>
