<svg width="32" height="32" viewBox="0 0 32 32" fill="none" xmlns="http://www.w3.org/2000/svg">
<g clip-path="url(#clip0_55_6)">
<path d="M26.2436 13.9453H25.773V9.7763C25.773 4.38774 21.3919 0 15.9967 0C10.6081 0 6.22039 4.38111 6.22039 9.7763C6.22039 10.2734 6.61807 10.6711 7.11517 10.6711C7.61227 10.6711 8.00995 10.2734 8.00995 9.7763C8.00995 5.37531 11.5891 1.78956 15.9967 1.78956C20.3977 1.78956 23.9834 5.36868 23.9834 9.7763V13.9453H5.75643C4.802 13.9453 4.02652 14.7208 4.02652 15.6752V26.8169C4.02652 29.6736 6.35295 32 9.20962 32H22.7904C25.6471 32 27.9735 29.6736 27.9735 26.8169V15.6752C27.9735 14.7208 27.198 13.9453 26.2436 13.9453ZM26.1839 26.8169C26.1839 28.686 24.6661 30.2104 22.7904 30.2104H9.21625C7.34715 30.2104 5.82271 28.6926 5.82271 26.8169V15.7349H26.1839V26.8169Z" fill="#E2E2E2" stroke="#D9D9D9"/>
<path d="M16.0033 26.4523C17.8525 26.4523 19.3505 24.9478 19.3505 23.1052C19.3505 21.256 17.8459 19.7581 16.0033 19.7581C14.1541 19.7581 12.6562 21.2626 12.6562 23.1052C12.6562 24.9478 14.1541 26.4523 16.0033 26.4523ZM16.0033 21.541C16.865 21.541 17.5609 22.2436 17.5609 23.0986C17.5609 23.9536 16.865 24.6628 16.0033 24.6628C15.1417 24.6628 14.4457 23.9602 14.4457 23.1052C14.4457 22.2502 15.1417 21.541 16.0033 21.541Z" fill="#E2E2E2" stroke="#D9D9D9"/>
</g>
<defs>
<clipPath id="clip0_55_6">
<rect width="32" height="32" fill="white"/>
</clipPath>
</defs>
</svg>
