<svg width="17" height="21" viewBox="0 0 17 21" fill="none" xmlns="http://www.w3.org/2000/svg">
<path d="M6.5 0.00106812C6.08579 0.00106812 5.75 0.336855 5.75 0.751068V1.50107H1.5C1.08579 1.50107 0.75 1.83685 0.75 2.25107C0.75 2.66528 1.08579 3.00107 1.5 3.00107H15.5C15.9142 3.00107 16.25 2.66528 16.25 2.25107C16.25 1.83685 15.9142 1.50107 15.5 1.50107H11.25V0.751068C11.25 0.336855 10.9142 0.00106812 10.5 0.00106812H6.5Z" fill="#F06A6D"/>
<path d="M6.5 8.40106C6.91421 8.40106 7.25 8.73685 7.25 9.15106L7.25 16.1511C7.25 16.5653 6.91421 16.9011 6.5 16.9011C6.08579 16.9011 5.75 16.5653 5.75 16.1511L5.75 9.15106C5.75 8.73685 6.08579 8.40106 6.5 8.40106Z" fill="#F06A6D"/>
<path d="M11.25 9.15106C11.25 8.73685 10.9142 8.40106 10.5 8.40106C10.0858 8.40106 9.75 8.73685 9.75 9.15106V16.1511C9.75 16.5653 10.0858 16.9011 10.5 16.9011C10.9142 16.9011 11.25 16.5653 11.25 16.1511V9.15106Z" fill="#F06A6D"/>
<path fill-rule="evenodd" clip-rule="evenodd" d="M2.49142 5.66824C2.53363 5.28842 2.85468 5.00107 3.23684 5.00107H13.7632C14.1453 5.00107 14.4664 5.28842 14.5086 5.66824L14.7087 7.46959C15.0715 10.7349 15.0715 14.0304 14.7087 17.2957L14.689 17.473C14.545 18.7692 13.5404 19.8027 12.2489 19.9835C9.76176 20.3317 7.23823 20.3317 4.75108 19.9835C3.45954 19.8027 2.455 18.7692 2.31098 17.473L2.29128 17.2957C1.92846 14.0304 1.92846 10.7349 2.29128 7.46959L2.49142 5.66824ZM3.90812 6.50107L3.7821 7.63524C3.43152 10.7905 3.43152 13.9748 3.7821 17.1301L3.8018 17.3074C3.87011 17.9221 4.34652 18.4123 4.95905 18.498C7.30822 18.8269 9.69177 18.8269 12.0409 18.498C12.6535 18.4123 13.1299 17.9221 13.1982 17.3074L13.2179 17.1301C13.5685 13.9748 13.5685 10.7905 13.2179 7.63524L13.0919 6.50107H3.90812Z" fill="#F06A6D"/>
</svg>
