<svg width="53" height="53" viewBox="0 0 53 53" fill="none" xmlns="http://www.w3.org/2000/svg">
<g clip-path="url(#clip0_55_14)">
<path d="M23.2368 43.1845C20.5011 42.5948 17.729 41.086 15.5319 38.9908L13.6093 37.1574L14.0919 31.7585C14.8277 29.1119 16.0576 27.0576 17.9866 25.2531C18.9409 24.3604 19.8384 23.6301 19.9813 23.6301C20.1243 23.6301 20.7978 24.0551 21.4784 24.5747C24.4838 26.8688 28.516 26.8688 31.5216 24.5747C32.2023 24.0551 32.8759 23.6301 33.0187 23.6301C33.1619 23.6301 34.0591 24.3604 35.0133 25.2531C36.9423 27.0576 38.1721 29.1119 38.9081 31.7585L39.3909 37.1574L37.4682 38.9908C33.5068 42.7683 28.3524 44.2873 23.2368 43.1845ZM23.948 24.2719C22.0534 23.6904 19.893 21.484 19.3163 19.542C18.4015 16.4614 19.002 13.9608 21.1796 11.7833C24.2715 8.69139 28.7285 8.69139 31.8204 11.7833C34.924 14.887 34.9134 19.331 31.7955 22.4494C29.6636 24.5812 26.9833 25.2039 23.9485 24.2719H23.948Z" fill="#D9D9D9"/>
</g>
<defs>
<clipPath id="clip0_55_14">
<rect width="53" height="53" fill="white"/>
</clipPath>
</defs>
</svg>
